<?xml version="1.0" encoding="UTF-8"?>
<svg id="_Слой_2" data-name="Слой 2" xmlns="http://www.w3.org/2000/svg" viewBox="0 0 784 141.5">
  <defs>
    <style>
      .cls-1 {
        fill: #fff;
      }
    </style>
  </defs>
  <g id="_Слой_1-2" data-name="Слой 1">
    <g>
      <path class="cls-1" d="M0,.65C12.47,1.11,25.12.04,37.58.65c1.02.05,3.71-.17,4.11.84l54.87,94.98,14.29-25.67L71.69.65h42.78l54.93,97L212.75,3.3c1.8-3.3,4.91-3.75,8.17-2.98l1.71.54-65.53,139.33-3.29-.4c-16.29-16.77-23.96-40.52-37.59-59.44l-32.36,61.13c-3.18.44-16.55-22.35-18.87-26.16C42.16,77.88,22.54,38.28,0,.65"/>
      <path class="cls-1" d="M784,.65v137.42h-26.02l-4.61-6.9c-45.76,31.19-82.23-21.76-64.52-65.61,9.81-24.29,43.95-38.28,67.4-25.65V.72c.9-.25,1.4-.07,1.73-.07h26.02ZM737.45,42.51c-31.76,4.94-31.77,87.81,3.21,86.4,4.66-.19,14.48-3.47,15.56-8.77-1.36-20.45,1.93-43.38.07-63.52-.36-3.88-.75-8.42-4.05-10.97-4.48-3.18-9.4-3.99-14.79-3.15Z"/>
      <path class="cls-1" d="M400.09,138.07L401.89.37l24.8.29v91.22c2.33.42,3.25-1.55,4.58-2.92,8.5-8.72,43.07-55.51,43.07-55.51,0,0,3.2-.04,4.8.09l-29.13,42.59,47.21,61.37-27.72,1.12-33.03-43.28c-15.45,6.25-9.78,29.27-9.78,42.73h-26.6Z"/>
      <path class="cls-1" d="M614.02,35.3v10.4c13.8-4.84,21.85-11.16,37.58-9.24,12.06,1.47,22.55,12.53,22.55,24.83v76.79h-26.6c.82-21.91,2.76-46.88,1.21-68.77-.39-5.44-1.14-14.04-5.24-17.86-9.53-7.73-19.48-.83-29.51,1.18v85.45h-26.6V35.3h26.6Z"/>
      <path class="cls-1" d="M578.17,80.33h-62.44c-5.09,27.98,10.73,61.55,43.15,42.52,6.76-3.97,10.79-11.6,18.13-13.64.37,14.66-22.29,27.28-35.39,28.74-35.29,3.93-58.18-20.04-55.93-54.7,3.92-60.35,90.44-66.96,92.48-2.92ZM515.72,73.41l33.57-.55c5.75-42.87-36.34-40.54-33.57.55Z"/>
      <path class="cls-1" d="M228.96,99.39c2.62,24.28,19.99,36.66,42.43,23.89,5.07-2.89,13.41-12.86,16.15-13.9.77-.29,2.63-.71,2.71.4-1.41,15.79-22.11,26.95-36.46,28.26-77.12,7.04-69.63-109.97,1.17-102.74,21.78,2.23,37.41,22.44,34.78,43.94l-60.78,1.66c.46,5.95-.63,12.65,0,18.48ZM230.69,74.56h27.75c9.06,0,3.89-18.45,1.79-23.72-2.26-5.66-5.78-9.61-12.19-9.86-16.02-.63-18.91,19.64-18.9,31.67l1.55,1.92Z"/>
      <path class="cls-1" d="M390.8,79.1s-8.5.07-13.19.02c-13.09-.13-31.35-.48-44.05,1.16-7.28.94-5.73,11.93-5.14,17.94,2.51,25.5,22,38.76,45,24.19,1.82-1.15,15.31-14.33,16.26-13.19,1.08,12.19-16.39,24.03-26.79,26.93-34.18,9.52-65.08-12.38-64.63-48.3.76-61.97,89.19-75.21,92.54-8.74ZM340.79,42.48c-8.65,1.98-12.88,23.32-10.73,31l31.95-.57c2.8-16.21-.19-35.24-21.21-30.42Z"/>
    </g>
  </g>
</svg>